<?xml version="1.0" standalone="no"?>
<!DOCTYPE svg PUBLIC "-//W3C//DTD SVG 20010904//EN"
 "http://www.w3.org/TR/2001/REC-SVG-20010904/DTD/svg10.dtd">
<svg version="1.0" xmlns="http://www.w3.org/2000/svg"
 width="260.000000pt" height="260.000000pt" viewBox="0 0 260.000000 260.000000"
 preserveAspectRatio="xMidYMid meet">
<metadata>
Created by potrace 1.14, written by Peter Selinger 2001-2017
</metadata>
<g transform="translate(0.000000,260.000000) scale(0.100000,-0.100000)"
fill="#000000" stroke="none">
<path d="M680 1647 c-16 -8 -24 -20 -22 -33 2 -10 44 -183 93 -384 50 -201 93
-376 95 -389 8 -41 24 -61 49 -62 96 -3 159 0 173 10 12 7 131 462 132 506 1
16 2 17 9 5 9 -15 20 -59 76 -295 43 -187 49 -206 61 -216 13 -11 170 -14 196
-4 9 4 19 18 23 33 4 15 9 34 11 42 2 8 40 157 84 330 44 173 82 324 85 335 2
11 9 38 14 60 10 36 8 42 -11 58 -18 15 -33 17 -77 13 -34 -3 -60 -12 -67 -21
-7 -9 -26 -75 -44 -148 -56 -235 -98 -412 -102 -432 -2 -11 -14 23 -27 75
-133 559 -118 509 -150 522 -24 9 -137 6 -147 -4 -4 -4 -40 -138 -49 -183 -4
-17 -16 -67 -20 -85 -1 -3 -6 -23 -13 -45 -6 -22 -13 -51 -16 -65 -2 -14 -14
-61 -25 -105 -11 -44 -21 -89 -21 -99 0 -43 -18 9 -36 104 -3 14 -18 79 -34
145 -16 66 -32 134 -35 150 -3 17 -7 35 -9 40 -1 6 -8 36 -16 68 -7 31 -19 62
-26 68 -21 18 -126 22 -154 6z"/>
<path d="M1799 954 c-17 -20 -14 -143 3 -160 23 -22 139 -22 161 1 21 21 22
139 1 160 -22 21 -146 21 -165 -1z"/>
</g>
</svg>
